<svg fill="none" height="24" viewBox="0 0 190 24" width="190" xmlns="http://www.w3.org/2000/svg"><g fill="#0D131A"><path d="m36.7242 7.50443c-.2561.30359-.3841.64973-.3841 1.03701v7.41076c0 .8484-.1365 1.6499-.4108 2.406-.2744.7561-.6585 1.4158-1.1523 1.9775-.4939.5632-1.0932 1.0044-1.7967 1.3279-.7035.3234-1.4942.4837-2.3721.4837-.6402 0-1.2663-.1064-1.8783-.3178-.6134-.2113-1.1847-.5121-1.7137-.8994-.5304-.3872-1.0017-.8384-1.4125-1.3547-.4109-.5164-.7176-1.0782-.9188-1.6868-.0549-.1291-.0957-.3277-.1238-.5944-.0267-.2667-.0464-.5717-.0549-.9121-.0098-.3405-.0183-.7136-.0267-1.1207-.0098-.4057-.0141-.8115-.0141-1.2172 0-.4795.0043-.949.0141-1.4101.0084-.461.0141-.8852.0141-1.2725v-2.79321c0-.53481-.1421-.91217-.4249-1.13347-.2842-.2213-.6725-.39579-1.165-.52488-.0549-.01844-.0774-.05958-.0689-.12484.0084-.06384.0408-.09647.0957-.09647 1.0425.05533 2.0752.0837 3.0995.0837h.8498c.2743 0 .5571-.00851.8498-.02837.0548 0 .0914.02837.1097.0837.0183.05532 0 .10214-.0549.1376-.2926.14754-.5895.36459-.892.64973-.3011.28655-.453.59439-.453.92635l-.0549 8.46196c0 .6271.1055 1.1945.3152 1.7009.2096.5079.5079.9406.892 1.2995s.8371.6412 1.3577.8441c.5205.2028 1.0833.3035 1.6869.3035s1.1973-.1007 1.7277-.3035c.5305-.2029.9877-.488 1.3718-.8569.3841-.3688.681-.8114.892-1.3278.2097-.5164.3152-1.0966.3152-1.742l-.0549-8.35139c0-.53482-.1365-.92635-.4108-1.17461-.2744-.24826-.6683-.41849-1.179-.51212-.0549-.01844-.0774-.05958-.069-.12483.0085-.06384.0408-.09647.0957-.09647.5121.05533 1.0144.08228 1.5082.08228.1464 0 .2969-.00426.4531-.01419.1547-.00851.3053-.01418.453-.01418.311 0 .6303-.00426.9596-.01419.3292-.00851.6584-.00425.9876.01419l.0268.2213c-.4024.07377-.7316.26244-.9877.56744z"/><path d="m47.6407 20.3357c-.0549.3973-.1097.8072-.1646 1.23 0 .0553-.0366.0837-.1098.0837l-.0267.0269c-.1463.0553-.2659.0837-.3559.0837-.4207 0-.8456-.0042-1.2747-.0142-.4292-.0085-.8555-.0142-1.2747-.0142-.3658 0-.7232-.0042-1.0693-.0141-.3475-.0085-.7035-.0142-1.0693-.0142-.4938 0-.9919.0042-1.4942.0142-.5037.0099-1.0017.0227-1.4942.0411v-.2213c.2744 0 .4981-.0596.6726-.1802.173-.1191.3053-.2723.3981-.4568.0915-.1844.1506-.3915.1787-.6227.0267-.2298.0408-.4653.0408-.7051v-11.50204c0-.36884-.0872-.60858-.2603-.71924-.1744-.11065-.3616-.20286-.5628-.27662-.1097-.03689-.2335-.07803-.37-.12484-.1365-.0454-.2786-.11491-.4249-.20712-.0366-.03688-.0506-.07802-.0408-.12484.0085-.04539.0408-.06951.0957-.06951h7.817c.0732-.03688.1505-.06951.2335-.09646.0817-.02838.1604-.05958.2336-.09647.0915-.03688.1365 0 .1365.11065-.0549.47949-.1238.92635-.2054 1.34059-.0816.41423-.1689.83414-.2603 1.2583-.0183.05533-.0591.07803-.1238.06951-.0648-.00851-.0957-.04114-.0957-.09646-.0366-.64547-.2561-1.06963-.6585-1.27249-.4023-.20286-.8962-.30358-1.4815-.30358h-2.1667v5.66872h3.1811c.0915 0 .2097-.0283.356-.0837.1463-.0553.2926-.1106.439-.1659.2012-.1107.4023-.193.6035-.2483.0915-.0369.1365 0 .1365.1107-.0183.2213-.0408.461-.0689.7192-.0268.2582-.0591.4979-.0957.7192s-.0647.4526-.0816.6909c-.0183.2397-.0464.4695-.0816.6908 0 .0554-.0225.0923-.0689.1107-.0465.0184-.0873.0099-.1239-.027-.0914-.0922-.1505-.1844-.1786-.2766-.0268-.0922-.0591-.1929-.0957-.3036-.0366-.1106-.0732-.2213-.1098-.3319-.0365-.1107-.1013-.2114-.1913-.3036-.0914-.0922-.2603-.1617-.5079-.2071-.2462-.0454-.5121-.0837-.7949-.1107-.2842-.0283-.5628-.0411-.8372-.0411h-1.4533v5.6971c.2743.4057.6626.715 1.1649.9264.5023.2128.9919.3177 1.4675.3177.6401 0 1.1832-.1702 1.632-.5121.4474-.3404.7443-.8242.892-1.4512l.2195.0553c-.0914.4242-.1646.8341-.2195 1.2299z"/><path d="m63.1228 22.0225c-.3391.0822-.6726.1248-1.0018.1248-.5487 0-1.0425-.1007-1.4815-.3036-.439-.2028-.8329-.461-1.179-.7745-.3475-.3136-.6725-.6725-.9736-1.0782s-.5895-.8199-.8639-1.2441c-.2561-.3873-.5262-.7689-.809-1.1477-.2842-.3773-.5937-.7192-.9328-1.0228s-.7035-.549-1.0974-.7334c-.394-.1844-.8372-.2766-1.3296-.2766h-.439c-.128 0-.2659.0184-.4108.0553v3.9267c0 .5348.1604.9916.4798 1.369.3194.3787.7443.5944 1.2747.6497v.2213c-.4207-.0369-.8372-.0695-1.248-.0965-.4108-.0269-.8273-.0411-1.248-.0411-.4206 0-.8272.0184-1.2198.0553-.3939.0369-.8005.0823-1.2198.1376-.0549.0185-.0957-.0042-.1238-.0695-.0282-.0638-.0141-.1149.0408-.1518.3841-.1844.7035-.461.9595-.8299.2561-.3688.3841-.7646.3841-1.1888v-11.03531c0-.42416-.1505-.79726-.453-1.1207-.3011-.32202-.6627-.53907-1.0834-.64972-.0548-.01844-.0773-.05958-.0689-.12484.0084-.06384.0408-.09647.0957-.09647h5.4027c.567 0 1.1241.06952 1.6728.20712.5487.13761 1.0327.35465 1.4534.64972s.7583.68235 1.0144 1.16184.3841 1.05119.3841 1.71506c0 .8853-.242 1.7236-.7274 2.5166-.484.7931-1.0285 1.4754-1.6321 2.0471.2012.2213.4207.5022.6585.8441s.4938.6965.7682 1.0653c.4024.5533.8273 1.1207 1.2747 1.701.4474.5802.9187 1.1065 1.4126 1.576.4938.4696 1.0059.8398 1.5364 1.1065.5304.2682 1.0692.3646 1.6179.2909l.0816.2213c-.3109.1475-.6359.2624-.9736.3461zm-6.1709-12.12629c-.1365-.47949-.3433-.91217-.6177-1.29945-.2743-.38728-.6134-.70505-1.0144-.95472-.4024-.24826-.8681-.37309-1.3985-.37309-.2195 0-.439.01418-.6584.04113-.2195.02696-.4306.08796-.6304.18017v6.88595c.311.0553.6121.0922.9047.1106.2927.0185.5938.027.9047.027 1.0242 0 1.7319-.2809 2.1259-.8441.3925-.5618.5895-1.3406.5895-2.3364 0-.4795-.0689-.959-.2054-1.43851z"/><path d="m75.6151 7.90448c-.0183.47949-.0816.9221-.1914 1.32782-.0183.05532-.0549.08228-.1097.08228-.0366 0-.0647-.02696-.0816-.08228-.1464-.64547-.4348-1.07389-.8639-1.28526-.4305-.21137-.937-.31777-1.5223-.31777h-2.4129v11.86383c0 .5348.1646.9859.4938 1.3548.3292.3688.7499.5986 1.262.6908.0549.0185.0774.0596.069.1249-.0099.0652-.0408.0964-.0957.0964-.4755-.0369-.9427-.0695-1.3985-.0964-.4573-.0284-.923-.0412-1.3985-.0412-.3658 0-.7232.0099-1.0693.0284-.3475.0184-.7035.0468-1.0693.0823-.0548.0184-.0872-.0085-.0956-.0823-.0099-.0738.014-.1192.0689-.1376.3109-.0738.5529-.1518.7274-.2355.173-.0837.3053-.1887.3982-.3178.0914-.1291.1463-.2993.1646-.5121.0183-.2114.0267-.4738.0267-.7887v-12.00287h-3.2908c-.439 0-.8231.14753-1.1523.4426-.3293.29507-.567.63554-.7134 1.02282-.0183.05532-.0548.07376-.1097.05532s-.0816-.05532-.0816-.11065l-.0549-.35891c0-.29507.0366-.57595.1098-.84407.0731-.2667.1463-.52914.2194-.78874.0366-.1291.0732-.25393.1098-.3731.0366-.11916.0731-.244.1097-.37309.0366-.09221.0915-.11065.1646-.05533.2744.18442.553.29933.8372.34614.2828.04682.5895.06951.9187.06951h8.7766c.2012 0 .4572-.04539.7682-.1376.0731-.01844.1364-.03688.1913-.05533.0549-.01844.1182-.03688.1913-.05532l.1365.11065c0 .42416-.0098.87528-.0267 1.35477z"/><path d="m89.617 21.7047c-.2293-.0184-.4713-.0369-.7274-.0553-.1463-.0185-.2968-.0327-.453-.0412s-.3152-.0142-.4798-.0142c-.4207 0-.8413.0185-1.262.0554s-.8414.0737-1.2621.1106c-.0548 0-.0914-.0284-.1097-.0837s0-.1007.0549-.1376l1.0693-.5249c-.311-.8667-.636-1.7193-.9737-2.5577-.339-.8384-.6626-1.7009-.9736-2.5861h-4.2518c-.0914.2397-.2237.5944-.3981 1.0653-.1745.4696-.3433.959-.5079 1.4655-.1646.5078-.311.9859-.439 1.4384-.128.4526-.1913.7788-.1913.9817 0 .2766.1181.4568.3559.5391.2378.0837.4657.1433.6852.1801v.2213c-.3475-.0368-.7035-.0695-1.0693-.0964-.3658-.0284-.7316-.0412-1.0974-.0412s-.7316.0142-1.0974.0412c-.3658.0269-.7316.0596-1.0975.0964-.0548.0185-.0872-.0085-.0956-.0837-.0099-.0737.014-.1191.0689-.1376 1.006-.1291 1.7095-.6639 2.1118-1.6044v.0269c.5305-1.3448 1.0426-2.6911 1.5364-4.0373.4939-1.3463.9779-2.701 1.4534-4.0657.3292-.9221.6486-1.8386.9596-2.75214.3109-.91216.6401-1.83.9876-2.7521.0183-.05532.0549-.08228.1098-.08228.0548 0 .0914.02696.1097.08228.0915.25819.1871.51212.2884.76038.0999.24825.197.50218.2885.76037.7499 2.06549 1.5307 4.13949 2.3454 6.22199.8132 2.084 1.7418 4.1211 2.7843 6.1114.2195.4241.4981.7291.8371.9121.3377.1845.7274.2951 1.165.332v.2213c-.2561.0369-.4981.0468-.7274.0284zm-7.2275-12.49936c-.3109.97746-.6078 1.93216-.892 2.86276s-.5993 1.8938-.9469 2.8897h3.5385l-1.701-5.75246z"/><path d="m116.329 21.594c-.156.6086-.361 1.1704-.617 1.6868 0 .0369-.027.0553-.082.0553-1.17.2029-2.341.3646-3.51.4837-1.171.1192-2.358.1802-3.565.1802-1.482 0-2.852-.244-4.114-.7334-1.262-.488-2.354-1.1803-3.277-2.074s-1.6421-1.9634-2.1528-3.2075c-.5121-1.2441-.7682-2.6315-.7682-4.1622 0-.793.0774-1.586.2336-2.3776.1547-.793.3841-1.56612.6852-2.32224.301-.75611.6725-1.47535 1.1112-2.1577.439-.68235.941-1.29944 1.508-1.8527.458-.4426 1.002-.81144 1.633-1.10651.63-.29507 1.293-.52914 1.988-.70505.695-.17449 1.394-.29933 2.097-.37309.704-.07377 1.358-.11066 1.962-.11066.676 0 1.347.04682 2.016.13761.667.09221 1.321.18442 1.961.27663.476.07377.955.1376 1.439.19293.484.05532.956.10214 1.413.1376.073 0 .11.03689.11.11065-.037.88522-.106 1.74631-.206 2.58613-.101.83981-.215 1.68246-.343 2.53079-.018.05533-.055.08228-.11.08228-.036 0-.064-.02695-.081-.08228-.147-.82988-.407-1.55763-.783-2.18465-.375-.62703-.845-1.15191-1.412-1.57608-.567-.42416-1.207-.74193-1.921-.95472-.713-.21137-1.463-.31777-2.248-.31777-1.299 0-2.478.20712-3.538.62277-1.061.41424-1.966 1.00438-2.716 1.77042-.75.76463-1.329 1.68247-1.742 2.7521-.411 1.06963-.617 2.25844-.617 3.56784 0 1.3093.242 2.6825.727 3.955.484 1.2725 1.161 2.3975 2.03 3.3735.868.9774 1.901 1.7605 3.1 2.3506 1.197.5902 2.5.8852 3.908.8852.805 0 1.499-.0879 2.085-.2624s1.102-.4384 1.549-.7888c.448-.3504.842-.7887 1.179-1.3136.338-.5249.673-1.1476 1.002-1.8669.037-.0553.078-.078.124-.0695.045.0099.077.0412.096.0965.055.3135.081.6355.081.9675 0 .5901-.077 1.1888-.233 1.7973z"/><path d="m122.345 21.7728c-.339-.0085-.681-.0142-1.028-.0142-.494 0-.978.0043-1.453.0142-.476.0099-.96.0227-1.454.0411-.055 0-.087-.0326-.095-.0964-.01-.0639.014-.1064.068-.1249.458-.166.791-.4185 1.002-.7603.21-.3405.315-.7505.315-1.23v-11.47652c0-.42416-.142-.71923-.425-.88521-.284-.16597-.617-.27663-1.001-.33195-.055-.01844-.078-.05958-.069-.12484.008-.06384.041-.09646.095-.09646.385.03688.769.06525 1.153.08369.384.01845.776.02696 1.179.02696.402 0 .768-.00851 1.152-.02696.384-.01844.758-.05532 1.124-.11065.055-.01844.092.00993.11.08228.018.07377 0 .12058-.055.13761-.402.09221-.727.20286-.973.33195-.247.12909-.371.43409-.371.91217v11.39283c0 .7008.133 1.203.399 1.5066.264.3035.727.4837 1.384.539v.2213c-.366 0-.717-.0042-1.057-.0141z"/><path d="m141.059 6.89585c-.01-.00851-.032-.00425-.069.01419-.256.07376-.526.16597-.809.27663-.284.11065-.425.30358-.425.58021l.027 6.66462v1.1335c0 1.0696-.018 2.125-.055 3.1663-.036 1.0413-.101 2.0882-.191 3.1394 0 .0369-.023.0695-.069.0964-.046.027-.087.0227-.124-.0141-.878-.7562-1.756-1.5719-2.632-2.4471-.878-.8753-1.742-1.7705-2.592-2.6826-.85-.9122-1.687-1.8343-2.51-2.7649s-1.609-1.8385-2.358-2.7237c-.256-.2767-.484-.5391-.685-.7888-.201-.2482-.431-.5121-.685-.78872-.055.49792-.082.97742-.082 1.43852 0 .7007.009 1.4015.027 2.1023s.045 1.4016.082 2.1024c.036.7008.063 1.4016.081 2.1024s.027 1.4101.027 2.1293c0 .3135.027.5675.081.7604.055.1929.124.3461.206.4568.081.1106.183.1887.301.2355s.242.078.37.0964c.146.0369.293.0781.439.1249s.319.1432.521.2908c.036.0369.05.078.04.1248s-.04.0695-.095.0695c-.183-.0184-.362-.0369-.535-.0553-.174-.0184-.352-.0369-.535-.0553-.256-.0369-.516-.0639-.782-.0823s-.526-.0284-.782-.0284c-.329 0-.668.0227-1.015.0695-.347.0469-.695.0965-1.042.1518-.055.0185-.096 0-.124-.0553s-.022-.1007.014-.1376c.146-.1291.279-.2298.398-.3036.119-.0737.234-.1376.344-.1929.219-.1107.415-.2625.589-.4568.173-.1929.26-.5022.26-.9264v-12.94759l.22-.4426c.018-.03689.045-.06384.082-.0837.036-.01844.063-.00851.081.02837 1.992 2.08394 3.923 4.13382 5.787 6.15252 1.866 2.0187 3.758 4.1069 5.677 6.2631v-.0822c0-.8484-.004-1.6868-.014-2.5167-.01-.8298-.023-1.6767-.041-2.5435-.018-.793-.037-1.6357-.055-2.5308-.018-.8937-.027-1.73781-.027-2.53081 0-.31351-.032-.56744-.095-.76037-.065-.19293-.151-.34047-.26-.44261-.11-.10072-.23-.17023-.356-.20711-.128-.03689-.257-.06384-.385-.0837-.146-.01844-.278-.04114-.398-.06951-.119-.02838-.223-.08796-.315-.18017-.036-.03688-.041-.08228-.014-.1376.027-.05533.059-.07377.096-.05533.42.05533.813.08228 1.179.08228h1.152c.238 0 .48-.00425.727-.01418.247-.00852.498-.00426.755.01418.091 0 .191.00426.301.01419.109.00993.209.01418.301.01418l.055.22131c-.037.01844-.059.02269-.069.01418z"/><path d="m151.057 20.3357c-.055.3973-.11.8072-.165 1.23 0 .0553-.036.0837-.109.0837l-.027.0269c-.146.0553-.266.0837-.356.0837-.421 0-.846-.0042-1.275-.0142-.429-.0085-.855-.0142-1.274-.0142-.366 0-.724-.0042-1.07-.0141-.347-.0085-.703-.0142-1.069-.0142-.494 0-.992.0042-1.494.0142-.504.0099-1.002.0227-1.494.0411v-.2213c.274 0 .498-.0596.672-.1802.173-.1191.306-.2723.398-.4568.092-.1844.151-.3915.179-.6227.027-.2298.041-.4653.041-.7051v-11.50204c0-.36884-.087-.60858-.26-.71924-.175-.11065-.362-.20286-.563-.27662-.11-.03689-.234-.07803-.37-.12484-.137-.0454-.279-.11491-.425-.20712-.037-.03688-.051-.07802-.041-.12484.009-.04539.041-.06951.096-.06951h7.817c.073-.03688.15-.06951.233-.09646.082-.02838.161-.05958.234-.09647.091-.03688.136 0 .136.11065-.055.47949-.123.92635-.205 1.34059-.082.41423-.169.83414-.26 1.2583-.019.05533-.059.07803-.124.06951-.065-.00851-.096-.04114-.096-.09646-.036-.64547-.256-1.06963-.658-1.27249-.403-.20286-.897-.30358-1.482-.30358h-2.167v5.66872h3.182c.091 0 .209-.0283.356-.0837.146-.0553.292-.1106.439-.1659.201-.1107.402-.193.603-.2483.092-.0369.137 0 .137.1107-.019.2213-.041.461-.069.7192-.027.2582-.059.4979-.096.7192s-.065.4526-.082.6909c-.018.2397-.046.4695-.081.6908 0 .0554-.023.0923-.069.1107-.047.0184-.087.0099-.124-.027-.091-.0922-.151-.1844-.179-.2766-.026-.0922-.059-.1929-.095-.3036-.037-.1106-.074-.2213-.11-.3319-.037-.1107-.101-.2114-.191-.3036-.092-.0922-.261-.1617-.508-.2071s-.512-.0837-.795-.1107c-.284-.0283-.563-.0411-.837-.0411h-1.454v5.6971c.275.4057.663.715 1.165.9264.502.2128.992.3177 1.468.3177.64 0 1.183-.1702 1.632-.5121.447-.3404.744-.8242.892-1.4512l.219.0553c-.091.4242-.164.8341-.219 1.2299z"/><path d="m166.389 14.833c-.275.1574-.411.4199-.411.7887v5.1439c0 .0184-.019.0468-.055.0837-.677.5163-1.427.8341-2.248.9547-.823.1206-1.637.1802-2.441.1802-1.281 0-2.456-.1703-3.525-.5122-1.069-.3404-1.994-.8483-2.77-1.5207-.778-.6724-1.38-1.525-1.811-2.5578-.43-1.0327-.644-2.2399-.644-3.6231 0-1.2171.215-2.2953.644-3.2358.429-.94056 1.019-1.72788 1.769-2.36484.75-.63554 1.627-1.11502 2.632-1.43847 1.006-.32202 2.075-.48374 3.209-.48374.64 0 1.279.04114 1.921.12483.64.0837 1.27.17024 1.892.26245.256.03688.494.06951.713.09646.22.02838.448.05958.686.09647.073 0 .109.03688.109.11065 0 .49793-.036.97316-.109 1.42428-.074.45254-.147.91784-.22 1.39591-.018.09221-.032.19293-.041.3036-.01.1106-.022.2128-.04.3036-.019.0553-.055.0837-.11.0837s-.092-.0284-.11-.0837c-.11-.59018-.301-1.09662-.575-1.52078-.275-.42417-.618-.77456-1.029-1.05119s-.868-.47949-1.372-.60858c-.503-.1291-1.028-.19293-1.577-.19293-.933 0-1.801.15746-2.606.46956-.804.31351-1.504.75186-2.097 1.31363-.594.56318-1.061 1.23559-1.399 2.01869-.339.7845-.508 1.6456-.508 2.5861 0 1.0328.187 2.0102.563 2.9308.374.9221.892 1.7237 1.549 2.406.659.6824 1.431 1.2214 2.317 1.6172.887.3972 1.842.5944 2.866.5944.421 0 .864-.0596 1.33-.1801.466-.1192.854-.3178 1.165-.5944v-4.5907c0-.3135-.096-.5248-.289-.6355-.191-.1106-.406-.2029-.644-.2766-.091-.0369-.197-.0738-.315-.1107-.12-.0369-.242-.0922-.37-.1659-.055-.0369-.073-.0781-.055-.1249.018-.0454.055-.0695.11-.0695 1.608 0 3.209.0284 4.799.0837l.027.2213c-.348.0738-.659.1887-.933.3461z"/><path d="m172.682 21.7728c-.339-.0085-.681-.0142-1.029-.0142-.493 0-.977.0043-1.453.0142s-.96.0227-1.453.0411c-.055 0-.088-.0326-.096-.0964-.01-.0639.014-.1064.069-.1249.457-.166.791-.4185 1.002-.7603.209-.3405.315-.7505.315-1.23v-11.47652c0-.42416-.142-.71923-.425-.88521-.284-.16597-.618-.27663-1.002-.33195-.055-.01844-.077-.05958-.069-.12484.009-.06384.041-.09646.096-.09646.384.03688.768.06525 1.152.08369.384.01845.777.02696 1.179.02696.403 0 .768-.00851 1.152-.02696.385-.01844.759-.05532 1.125-.11065.055-.01844.091.00993.109.08228.019.07377 0 .12058-.054.13761-.403.09221-.728.20286-.974.33195s-.37.43409-.37.91217v11.39283c0 .7008.132 1.203.398 1.5066.265.3035.727.4837 1.384.539v.2213c-.365 0-.717-.0042-1.056-.0141z"/><path d="m189.275 21.7047c-.229-.0184-.471-.0369-.727-.0553-.146-.0185-.297-.0327-.453-.0412s-.315-.0142-.48-.0142c-.42 0-.841.0185-1.262.0554-.42.0369-.841.0737-1.262.1106-.055 0-.091-.0284-.11-.0837-.018-.0553 0-.1007.055-.1376l1.07-.5249c-.311-.8667-.636-1.7193-.974-2.5577-.339-.8384-.663-1.7009-.974-2.5861h-4.251c-.092.2397-.224.5944-.399 1.0653-.174.4696-.343.959-.508 1.4655-.164.5078-.31.9859-.438 1.4384-.129.4526-.192.7788-.192.9817 0 .2766.118.4568.356.5391.238.0837.466.1433.685.1801v.2213c-.347-.0368-.703-.0695-1.069-.0964-.366-.0284-.732-.0412-1.097-.0412-.366 0-.732.0142-1.098.0412-.366.0269-.731.0596-1.097.0964-.055.0185-.087-.0085-.096-.0837-.01-.0737.014-.1191.069-.1376 1.006-.1291 1.709-.6639 2.112-1.6044v.0269c.53-1.3448 1.042-2.6911 1.536-4.0373.494-1.3463.978-2.701 1.454-4.0657.329-.9221.648-1.8386.959-2.75214.311-.91216.64-1.83.988-2.7521.018-.05532.055-.08228.11-.08228.054 0 .091.02696.109.08228.092.25819.187.51212.289.76038.1.24825.197.50218.288.76037.75 2.06549 1.531 4.13949 2.346 6.22199.813 2.084 1.741 4.1211 2.784 6.1114.219.4241.498.7291.837.9121.338.1845.727.2951 1.165.332v.2213c-.256.0369-.498.0468-.727.0284zm-7.227-12.49936c-.311.97746-.608 1.93216-.892 2.86276s-.599 1.8938-.947 2.8897h3.539l-1.701-5.75246z"/><path d="m11.6805 0c-5.39144 0-11.6805 2.95638-11.6805 10.5899 0 5.0063 2.98414 9.028 8.79624 9.028l-.03095-.1901c-3.09669-.1078-6.78993-3.9522-6.78993-8.7315 0-7.83213 6.52261-9.900461 9.59254-9.900461 3.07 0 8.5684 1.042681 8.5684 7.260431 0 6.21773-6.0007 6.68303-6.0007 6.68303-.5023 0-.5332.2412.031.254 1.5082.0312 8.0111-1.0512 8.0111-6.81077.0014-6.37239-5.1044-8.18253-10.4972-8.18253z"/><path d="m15.4778 23.4453c-.8779-.0369-1.4998-.244-1.8656-.6227-.3658-.3774-.5487-1.0002-.5487-1.8669v-14.56629c.0127-.82421.2054-1.48103.5558-1.84561.363-.37877.9806-.58589 1.8515-.62277.0549 0 .0816-.03688.0816-.11065s-.0267-.11065-.0816-.11065h-5.4182c-.41781 0-.83568.00851-1.25214.02695-.05487 0-.08582.03263-.09567.09647-.00985.06383.01407.10639.06754.12483.45303.07377.80759.17449 1.06224.30359.25463.12909.43613.29932.54453.51211.1055.2057.1688.45538.1885.74761v15.19331c0 .4426-.0099.8157-.0267 1.1207-.0183.3036-.0816.5632-.1914.7745-.1097.2128-.2926.3831-.54869.5122-.25607.129-.61343.2312-1.06929.3035-.05487.0185-.07738.0596-.06894.1249.00845.0652.04081.0964.09568.0964.42067.0185.84135.027 1.26204.027h5.4575c.0549 0 .0816-.0369.0816-.1107 0-.0737-.0267-.1106-.0816-.1106z"/></g></svg>